<?xml version="1.0" standalone="no"?>
<!DOCTYPE svg PUBLIC "-//W3C//DTD SVG 20010904//EN"
 "http://www.w3.org/TR/2001/REC-SVG-20010904/DTD/svg10.dtd">
<svg version="1.0" xmlns="http://www.w3.org/2000/svg"
 width="920.000000pt" height="512.000000pt" viewBox="0 0 920.000000 512.000000"
 preserveAspectRatio="xMidYMid meet">

<g transform="translate(0.000000,512.000000) scale(0.100000,-0.100000)"
fill="#000000" stroke="none">
<path d="M4364 4830 c-45 -4 -86 -10 -91 -13 -5 -4 -38 -9 -73 -12 -35 -3 -66
-7 -69 -9 -4 -3 -60 -18 -126 -35 -190 -50 -219 -61 -424 -165 -225 -113 -419
-253 -581 -416 -143 -143 -224 -243 -332 -409 -41 -61 -37 -79 19 -75 21 2 85
5 143 8 58 2 112 7 120 11 8 3 41 60 73 126 73 150 159 279 233 350 91 87 94
89 100 89 3 0 12 7 21 15 8 9 58 46 111 84 179 128 383 219 622 279 102 25
115 26 460 29 345 2 358 2 465 -22 215 -48 399 -118 545 -209 142 -88 313
-219 378 -290 67 -73 164 -229 229 -368 20 -43 44 -80 53 -83 37 -12 305 -23
315 -13 11 11 -40 89 -185 281 -178 237 -441 450 -749 609 -64 32 -145 71
-181 85 -36 14 -78 31 -95 39 -16 7 -50 18 -75 25 -25 6 -70 17 -100 24 -30 8
-79 20 -108 29 -30 8 -75 16 -100 17 -26 1 -58 7 -72 12 -30 11 -412 16 -526
7z"/>
<path d="M3350 3040 c-6 -11 -8 -20 -6 -20 3 0 10 9 16 20 6 11 8 20 6 20 -3
0 -10 -9 -16 -20z"/>
<path d="M2750 2935 c-7 -8 -30 -18 -52 -21 -63 -11 -74 -50 -30 -107 26 -35
29 -36 93 -37 64 0 68 1 98 35 17 20 31 44 31 54 0 25 -34 54 -65 54 -15 0
-30 7 -36 18 -12 23 -22 24 -39 4z"/>
<path d="M4046 2874 c-4 -9 10 -31 34 -55 36 -36 45 -40 82 -38 56 3 68 8 68
26 0 8 4 12 9 9 5 -3 15 1 22 10 14 17 20 56 8 48 -5 -3 -17 0 -28 6 -12 6
-22 6 -26 1 -5 -10 -43 -7 -53 4 -3 2 -11 0 -18 -6 -9 -7 -25 -8 -41 -4 -48
14 -51 13 -57 -1z m117 -21 c-4 -10 -2 -14 4 -10 5 3 10 0 10 -8 0 -8 -4 -15
-9 -15 -4 0 -8 6 -8 13 0 8 -3 7 -10 -3 -7 -11 -8 -6 -5 15 2 17 4 31 4 33 1
2 5 1 11 -3 5 -3 6 -13 3 -22z"/>
<path d="M3221 2824 c6 -8 18 -14 25 -14 21 0 17 -30 -3 -31 -10 -1 -22 -1
-26 0 -5 1 -6 -3 -3 -8 7 -11 -42 -9 -136 4 -87 12 -90 7 -88 -139 2 -190 12
-169 -72 -161 -40 3 -80 7 -88 8 -37 4 -133 -16 -177 -38 -73 -35 -79 -46 -58
-100 26 -70 95 -105 95 -49 0 14 7 40 15 58 l15 32 103 -2 c56 0 114 -4 128
-8 32 -9 51 -46 43 -85 -5 -24 -1 -32 26 -51 l32 -23 -3 -228 -4 -227 25 -22
25 -22 5 259 c5 250 6 258 25 258 20 0 20 -7 20 -277 0 -268 1 -277 20 -282
11 -3 24 -1 29 4 5 5 10 130 11 277 2 147 3 272 4 276 0 5 11 7 24 5 l22 -3 3
-272 c2 -262 3 -273 22 -273 10 0 22 5 26 11 3 6 6 97 5 203 -2 196 1 226 24
226 22 0 25 -26 25 -211 0 -188 2 -196 43 -165 15 12 17 20 10 48 -5 18 -9 80
-8 136 1 87 4 106 18 114 30 16 37 -1 37 -95 1 -74 5 -101 23 -137 24 -49 95
-120 119 -120 9 0 32 -7 51 -15 95 -40 241 48 268 161 12 56 12 381 -2 389 -5
4 -68 8 -139 9 -81 1 -133 6 -142 14 -8 6 -20 31 -27 54 -15 48 -49 85 -103
110 -20 9 -41 25 -46 35 -5 10 -10 72 -11 138 -1 66 -3 129 -3 140 -1 39 2 52
15 53 6 1 57 3 112 4 73 2 106 7 123 19 20 14 21 17 6 23 -9 3 -24 1 -32 -6
-13 -11 -14 -11 -7 2 7 12 6 13 -6 4 -9 -8 -55 -11 -126 -10 -80 1 -114 -2
-117 -11 -3 -6 0 -14 7 -17 9 -3 8 -5 -1 -5 -8 -1 -10 -6 -6 -13 5 -8 0 -7
-11 2 -17 14 -18 13 -12 -5 7 -19 6 -19 -7 -2 -15 19 -31 23 -20 5 5 -9 2 -9
-9 1 -19 15 -22 22 -8 19 9 -3 11 2 11 20 0 4 -15 8 -32 8 -18 1 -52 3 -76 6
-36 5 -41 4 -31 -8z m34 -152 c-1 -21 -5 -44 -9 -50 -4 -7 -2 -12 3 -12 6 0
11 -8 12 -17 0 -15 2 -15 7 -3 4 8 19 16 34 18 36 4 61 -30 46 -64 -9 -20 -13
-21 -25 -8 -13 13 -35 19 -56 15 -5 -1 -6 3 -2 9 4 6 -5 7 -25 4 -32 -7 -38 3
-20 36 14 26 -13 52 -46 44 -14 -4 -24 -2 -24 5 0 11 9 14 43 14 12 0 17 8 17
27 0 34 8 42 30 30 12 -6 16 -20 15 -48z m75 -14 c0 -5 6 -6 13 -2 6 4 2 -4
-10 -16 -21 -22 -23 -23 -48 -6 -14 9 -24 20 -21 24 6 11 66 11 66 0z m-150
-84 c6 -15 3 -20 -11 -21 -22 -2 -33 12 -25 33 8 20 27 14 36 -12z m64 -79
c-4 -8 -7 -15 -9 -15 -2 0 -5 7 -9 15 -3 9 0 15 9 15 9 0 12 -6 9 -15z m-425
-62 c-8 -9 -16 -10 -22 -4 -13 13 0 31 19 24 11 -4 12 -8 3 -20z m-84 7 c-3
-5 -12 -10 -18 -10 -7 0 -6 4 3 10 19 12 23 12 15 0z m170 1 c7 -12 -31 -25
-45 -16 -6 4 -8 11 -5 16 8 12 42 12 50 0z m-198 -40 c-1 -15 -4 -17 -14 -9
-7 5 -10 14 -7 19 10 16 23 9 21 -10z m477 -17 c4 -9 2 -13 -5 -8 -6 3 -4 -5
6 -19 13 -20 14 -27 3 -33 -30 -19 -88 -6 -88 21 0 14 48 54 66 55 7 0 15 -7
18 -16z m129 -32 c-2 -10 -11 -19 -19 -19 -12 0 -12 3 1 17 8 9 12 20 8 25 -5
4 -3 5 4 2 6 -4 9 -15 6 -25z"/>
<path d="M3370 2820 c0 -5 8 -14 18 -19 14 -7 18 -6 19 8 1 10 -6 17 -18 18
-10 1 -19 -2 -19 -7z"/>
<path d="M3718 2709 c-43 -11 -49 -18 -35 -39 9 -16 9 -23 -6 -37 -21 -22 -70
-7 -75 22 -6 30 -18 38 -41 26 -29 -16 -26 -42 9 -76 35 -33 39 -61 9 -70 -13
-5 -19 -14 -17 -27 3 -23 35 -33 54 -17 20 17 52 18 64 3 18 -20 3 -63 -25
-76 -26 -12 -31 -32 -15 -58 8 -12 15 -12 58 3 55 20 87 15 73 -12 -12 -22 5
-51 29 -51 21 0 50 46 50 78 0 11 -7 25 -15 32 -21 18 -19 28 15 62 31 30 38
52 20 63 -6 3 -14 -5 -20 -19 -7 -18 -17 -26 -34 -26 -41 0 -53 35 -32 90 19
49 14 87 -15 113 -18 18 -31 22 -51 16z"/>
<path d="M3842 2700 c-12 -12 -23 -28 -24 -38 -5 -60 -3 -73 12 -87 15 -14 16
-12 15 23 -2 46 3 62 20 62 16 0 29 35 20 50 -9 15 -19 12 -43 -10z"/>
<path d="M2690 2660 c0 -11 4 -20 9 -20 18 0 41 12 41 22 0 5 -4 7 -9 3 -5 -3
-12 -1 -16 5 -10 17 -25 11 -25 -10z"/>
<path d="M2763 2659 c-12 -4 -6 -8 20 -13 37 -7 57 -2 57 13 0 10 -51 9 -77 0z"/>
<path d="M4055 2468 c-18 -8 -18 -8 3 -4 12 2 22 0 22 -6 0 -5 4 -7 9 -4 5 3
11 -3 14 -14 4 -15 -1 -22 -18 -26 -29 -7 -98 14 -90 27 4 5 1 9 -5 9 -6 0 -9
4 -6 9 3 4 -6 6 -19 3 -22 -4 -25 -9 -25 -48 0 -41 8 -53 24 -37 11 11 35 14
121 17 108 4 105 3 104 29 0 12 -3 16 -6 10 -5 -14 -35 -18 -46 -7 -3 4 -2 15
4 25 7 14 6 19 -3 21 -43 5 -65 4 -83 -4z"/>
<path d="M4250 2436 c0 -8 4 -17 8 -20 13 -8 35 11 28 23 -10 16 -36 14 -36
-3z"/>
<path d="M4317 2403 c-4 -3 -7 -15 -7 -25 0 -13 -8 -18 -28 -18 -15 0 -33 5
-40 12 -6 6 -15 9 -19 5 -4 -4 -1 -13 5 -19 7 -7 12 -26 12 -44 0 -59 47 -49
80 16 27 53 25 102 -3 73z"/>
<path d="M2840 2311 c-5 -11 -10 -26 -10 -34 0 -19 -66 -77 -87 -77 -25 0
-116 -46 -137 -69 -29 -32 -4 -121 35 -121 12 0 17 4 14 11 -10 15 3 59 18 59
7 0 28 11 47 24 19 13 50 27 69 31 71 15 132 104 111 159 -7 19 -28 36 -45 36
-3 0 -9 -9 -15 -19z"/>
<path d="M4042 2308 c-7 -7 -12 -30 -12 -52 0 -33 6 -45 40 -78 23 -21 48 -38
57 -38 9 0 45 -15 79 -32 55 -28 65 -37 70 -65 9 -47 31 -41 48 15 15 49 7 77
-25 93 -65 31 -109 49 -122 49 -27 0 -87 65 -87 94 0 28 -26 36 -48 14z"/>
<path d="M2690 1865 c0 -26 24 -35 32 -12 7 18 -2 37 -18 37 -8 0 -14 -10 -14
-25z"/>
<path d="M2805 1882 c-6 -4 -1 -16 13 -30 l23 -23 -3 27 c-3 29 -16 39 -33 26z"/>
<path d="M4090 1861 c-12 -24 -13 -34 -1 -27 9 6 22 46 15 46 -2 0 -8 -9 -14
-19z"/>
<path d="M4208 1873 c6 -2 9 -10 6 -15 -4 -7 -2 -8 4 -4 18 11 14 26 -5 25
-11 0 -13 -3 -5 -6z"/>
<path d="M2628 1769 c-9 -5 -17 -23 -17 -41 -1 -18 -3 -46 -4 -63 l-2 -30 148
0 c82 0 153 2 158 6 10 6 6 75 -5 86 -4 5 -12 8 -16 8 -5 0 -15 9 -23 19 -12
16 -29 19 -119 21 -57 2 -111 -1 -120 -6z m164 -57 c8 -8 15 -8 24 -1 17 14
30 -9 15 -24 -9 -9 -11 -7 -5 8 6 16 4 18 -6 8 -11 -10 -17 -9 -32 4 -14 13
-18 13 -18 2 0 -11 -2 -11 -10 1 -8 12 -10 12 -10 1 0 -8 -3 -12 -6 -8 -10 9
5 25 21 23 8 -1 20 -7 27 -14z"/>
<path d="M4064 1756 c-18 -26 -12 -32 30 -31 22 1 33 -2 29 -9 -3 -6 0 -5 8 2
18 17 84 15 99 -2 8 -11 18 -12 35 -6 16 6 23 5 21 -3 -3 -24 -16 -34 -38 -32
-38 4 -39 5 -32 18 6 9 5 9 -7 0 -11 -9 -19 -9 -26 -2 -8 8 -13 7 -18 -1 -5
-8 -11 -7 -23 2 -13 10 -14 10 -8 0 6 -10 1 -11 -21 -7 -15 4 -33 7 -40 7 -7
1 -10 5 -7 9 5 8 -13 22 -32 25 -12 2 -27 -63 -18 -77 3 -6 214 -6 288 0 4 1
5 11 2 24 -13 42 -13 52 -4 69 11 23 -8 27 -131 30 -82 3 -95 1 -107 -16z
m-17 -61 c0 -8 -4 -12 -9 -9 -5 3 -6 10 -3 15 9 13 12 11 12 -6z"/>
<path d="M3380 1696 c0 -16 34 -40 58 -42 l25 -1 -24 18 c-13 10 -26 16 -28
13 -2 -2 -10 1 -18 7 -7 6 -13 8 -13 5z"/>
<path d="M3522 1678 c-17 -11 -30 -24 -27 -28 7 -11 35 -1 35 12 0 5 4 7 9 4
8 -5 26 23 19 29 -2 1 -18 -7 -36 -17z"/>
<path d="M6510 1407 c-21 -21 -535 -28 -1955 -28 -1169 0 -1440 2 -1782 15
-68 3 -123 3 -123 0 0 -11 93 -149 141 -207 193 -240 333 -367 597 -543 77
-52 133 -80 362 -183 96 -43 273 -100 330 -106 34 -4 75 -11 93 -17 83 -26
458 -48 577 -33 25 3 79 8 120 11 41 3 104 11 140 19 36 8 85 16 110 19 42 5
322 98 345 115 5 4 42 21 80 37 39 16 88 39 110 51 22 12 67 36 100 53 33 18
71 42 85 54 14 13 54 43 89 67 36 24 76 55 90 68 14 13 58 50 97 82 106 88
273 282 373 431 50 75 60 95 42 84 -5 -4 -11 -1 -13 5 -2 5 -6 8 -8 6z m-2049
-121 c0 19 1 19 8 0 7 -19 8 -19 15 0 7 19 8 19 22 0 14 -20 14 -20 15 0 0 19
1 19 8 0 7 -19 8 -19 15 0 7 19 8 19 22 0 14 -20 14 -20 15 0 0 19 1 19 8 0 7
-19 8 -19 15 0 7 19 8 19 22 0 14 -20 14 -20 15 0 0 19 1 19 8 0 7 -18 8 -18
14 -2 4 11 12 14 19 9 7 -4 144 -8 305 -8 160 0 294 -2 297 -5 2 -3 -121 -5
-274 -5 -153 0 -277 -2 -275 -5 2 -3 124 -5 272 -4 175 0 273 -3 282 -10 11
-8 13 -8 7 2 -4 7 -2 12 4 12 6 0 8 4 5 10 -3 6 1 7 10 3 13 -5 14 -7 3 -14
-10 -7 -9 -9 5 -9 9 0 17 6 18 13 0 10 2 10 6 0 2 -7 9 -13 14 -13 6 0 7 6 3
13 -6 9 -4 9 7 1 8 -6 22 -10 31 -9 24 4 33 -12 16 -32 -11 -14 -11 -16 2 -8
8 5 21 10 29 12 8 1 18 8 22 15 7 11 9 11 9 -1 0 -7 6 -11 14 -8 10 4 13 1 9
-9 -3 -8 0 -20 6 -28 6 -7 7 -17 3 -22 -4 -4 0 -3 9 4 9 6 20 8 24 4 5 -4 5
-1 1 6 -4 7 -12 10 -17 7 -5 -3 -6 2 -3 12 5 15 4 16 -5 3 -7 -9 -11 -10 -11
-3 0 19 20 26 26 9 3 -9 10 -13 15 -10 5 3 8 0 7 -8 -2 -7 2 -12 8 -11 6 1 9
-10 6 -29 -3 -20 -1 -29 6 -24 6 3 14 1 18 -5 4 -8 3 -9 -4 -5 -16 10 -15 -7
1 -23 10 -11 10 -13 0 -7 -8 5 -13 1 -13 -9 0 -10 5 -13 13 -9 8 5 8 2 -2 -9
-7 -9 -10 -17 -7 -17 4 0 2 -9 -4 -21 -9 -16 -14 -18 -26 -8 -12 10 -13 9 -8
-6 6 -14 4 -16 -7 -10 -8 5 -5 -2 6 -14 14 -16 15 -22 5 -19 -10 2 -14 -4 -12
-17 l4 -20 -16 20 c-15 20 -15 20 -9 -2 4 -18 1 -23 -13 -24 -18 0 -18 -1 1
-9 l20 -9 -20 0 c-23 -2 -89 -76 -80 -91 4 -6 3 -10 -2 -9 -19 3 -33 -2 -33
-12 0 -5 6 -7 13 -3 7 4 8 3 4 -2 -5 -5 -14 -9 -20 -9 -19 0 -67 -41 -67 -56
0 -11 -3 -11 -10 1 -8 13 -10 13 -10 -2 0 -9 -5 -20 -12 -24 -7 -5 -8 -3 -3 5
6 10 3 11 -14 2 -11 -7 -21 -14 -21 -17 0 -3 5 -2 12 2 7 4 8 3 4 -5 -4 -6
-12 -9 -17 -5 -6 3 -22 -5 -37 -17 -21 -19 -23 -20 -12 -4 11 15 8 14 -13 -4
-15 -14 -27 -21 -27 -16 0 5 -7 0 -16 -11 -8 -10 -13 -13 -9 -7 4 9 1 11 -9 7
-9 -3 -14 -10 -11 -14 3 -5 -3 -7 -12 -6 -10 2 -24 -4 -31 -13 -10 -12 -12
-13 -6 -1 5 10 -1 8 -16 -5 -13 -11 -20 -14 -16 -8 5 9 2 11 -8 7 -9 -3 -16
-11 -16 -18 0 -6 -5 -4 -10 4 -8 12 -10 12 -10 1 0 -8 -3 -11 -7 -8 -3 4 -12
-1 -20 -11 -8 -9 -12 -11 -8 -4 7 14 -11 17 -19 3 -3 -5 -15 -11 -26 -14 -13
-3 -18 -1 -13 6 4 7 0 6 -10 -1 -9 -8 -26 -13 -39 -12 -38 3 -50 1 -43 -10 4
-6 -1 -7 -10 -3 -10 3 -20 0 -25 -6 -5 -9 -9 -8 -13 4 -5 10 -3 14 5 9 7 -4 8
-3 4 5 -6 8 -12 9 -20 2 -7 -6 -16 -8 -20 -4 -4 4 -5 1 -1 -7 4 -12 -4 -15
-34 -16 -26 0 -38 3 -34 10 4 7 1 6 -8 -1 -15 -12 -141 -15 -134 -2 3 4 0 11
-6 15 -8 4 -9 3 -5 -4 4 -7 2 -12 -4 -12 -6 0 -8 -6 -4 -13 6 -9 4 -9 -7 1
-16 14 -33 16 -24 2 3 -6 -1 -7 -9 -4 -9 3 -16 11 -16 18 0 7 -3 7 -8 1 -8
-12 -44 -16 -37 -5 7 12 -26 22 -39 11 -10 -8 -19 -7 -63 3 -10 3 -22 5 -26 5
-5 1 -5 7 -1 14 5 8 2 7 -9 -2 -14 -11 -23 -12 -43 -2 -14 6 -22 16 -19 22 4
6 -2 5 -13 -2 -18 -11 -24 -10 -43 6 -12 11 -19 14 -15 8 5 -10 1 -11 -17 -4
-14 6 -27 7 -30 5 -3 -3 -8 0 -13 7 -5 8 -3 10 6 4 8 -5 11 -4 6 3 -4 6 -14 8
-23 5 -11 -4 -14 -3 -9 5 5 8 2 10 -8 6 -9 -3 -16 -1 -16 4 0 6 -9 9 -20 7
-11 -2 -18 0 -15 4 3 5 -2 12 -11 15 -10 4 -13 2 -9 -7 4 -6 0 -4 -9 7 -8 10
-22 16 -30 13 -8 -3 -20 2 -28 11 -12 16 -11 16 7 2 19 -14 19 -14 6 2 -7 10
-18 15 -24 11 -5 -3 -19 5 -29 18 -11 13 -17 17 -13 9 4 -8 -3 -4 -16 10 -13
14 -21 21 -17 15 5 -7 2 -12 -7 -12 -8 0 -12 3 -10 7 2 4 -3 16 -11 26 -9 10
-12 13 -8 5 5 -9 3 -12 -4 -7 -7 4 -12 15 -12 24 0 15 -2 15 -10 2 -7 -11 -10
-12 -10 -2 0 16 -24 42 -39 42 -5 0 -13 5 -17 12 -5 7 -3 8 6 3 9 -6 11 -4 6
4 -5 7 -15 10 -23 6 -13 -4 -14 -3 -3 10 11 13 10 14 -4 9 -10 -4 -18 0 -22
10 -3 9 -10 13 -15 10 -5 -3 -8 -2 -7 3 4 15 -13 53 -24 53 -6 0 -8 9 -5 21 4
16 3 18 -8 9 -9 -8 -17 -4 -30 16 -10 15 -12 23 -4 19 9 -6 11 -3 6 9 -4 10
-7 24 -7 32 0 9 -4 13 -9 9 -5 -3 -12 -1 -15 4 -4 5 0 8 6 7 23 -3 37 -16 32
-30 -3 -8 -1 -16 4 -20 13 -8 8 32 -6 46 -9 9 -9 15 1 27 9 12 9 13 0 7 -8 -4
-13 -2 -13 7 0 16 29 87 30 73 0 -5 8 -2 18 7 15 13 21 14 32 4 12 -10 12 -9
4 3 -13 19 -28 57 -18 47 4 -4 14 -1 22 6 13 9 14 9 8 0 -4 -7 -2 -13 3 -13 6
0 11 5 11 12 0 6 3 8 6 5 4 -4 1 -14 -6 -22 -11 -13 -15 -13 -21 -3 -6 9 -9 9
-9 1 0 -16 17 -26 25 -13 4 6 12 7 18 4 7 -4 9 -4 5 1 -10 11 11 47 23 40 5
-4 9 -1 9 6 0 7 7 4 16 -7 13 -16 15 -16 10 -1 -3 9 -1 17 4 17 6 0 10 -6 10
-14 0 -8 4 -17 9 -20 5 -4 7 4 4 16 -4 21 -3 21 7 5 9 -14 15 -16 26 -6 7 6
11 16 7 22 -3 6 -1 7 5 3 6 -4 9 -14 6 -24 -4 -10 -2 -13 3 -7 5 7 113 11 312
10 262 0 305 2 308 15 4 13 3 13 -6 0 -6 -8 -11 -10 -11 -4 0 21 15 25 27 8
12 -17 13 -17 14 2z m994 -25 c3 -5 2 -12 -3 -15 -5 -3 -9 1 -9 9 0 17 3 19
12 6z m-1855 -56 c-10 -12 -15 -13 -21 -3 -11 17 11 42 24 29 7 -7 6 -15 -3
-26z m-42 -35 c-12 -35 -23 -41 -12 -7 4 12 7 27 7 34 0 7 4 10 8 7 4 -2 3
-18 -3 -34z m-16 -58 c3 -10 0 -19 -6 -19 -6 0 -11 10 -11 23 0 25 10 23 17
-4z m1938 -225 c0 -2 -12 -14 -27 -28 l-28 -24 24 28 c23 25 31 32 31 24z
m-100 -101 c0 -2 -8 -10 -17 -17 -16 -13 -17 -12 -4 4 13 16 21 21 21 13z"/>
<path d="M4670 1281 c0 -6 4 -13 10 -16 6 -3 7 1 4 9 -7 18 -14 21 -14 7z"/>
<path d="M4705 1270 c3 -5 8 -10 11 -10 2 0 4 5 4 10 0 6 -5 10 -11 10 -5 0
-7 -4 -4 -10z"/>
<path d="M3694 1244 c1 -8 4 -15 7 -16 2 -2 3 -1 2 1 -2 2 2 9 7 16 7 8 5 12
-4 12 -8 0 -13 -6 -12 -13z"/>
<path d="M5396 1248 c3 -5 10 -6 15 -3 13 9 11 12 -6 12 -8 0 -12 -4 -9 -9z"/>
<path d="M5464 1229 c-4 -7 -3 -9 4 -5 5 3 13 0 15 -6 4 -9 6 -10 6 -1 1 17
-16 25 -25 12z"/>
<path d="M5550 1179 c0 -5 -5 -7 -11 -3 -6 3 -5 -4 4 -17 8 -13 13 -38 13 -55
-1 -18 3 -31 11 -31 8 0 9 6 2 19 -7 13 -6 18 3 18 8 0 9 3 3 8 -12 8 -18 29
-17 55 0 9 -1 17 -4 17 -2 0 -4 -5 -4 -11z"/>
<path d="M5560 1045 c0 -8 2 -15 4 -15 2 0 6 7 10 15 3 8 1 15 -4 15 -6 0 -10
-7 -10 -15z"/>
<path d="M3566 995 c4 -8 8 -15 10 -15 2 0 4 7 4 15 0 8 -4 15 -10 15 -5 0 -7
-7 -4 -15z"/>
<path d="M3630 924 c0 -5 7 -18 15 -28 8 -11 15 -16 15 -10 0 5 -7 18 -15 28
-8 11 -15 16 -15 10z"/>
<path d="M3585 1220 c-3 -5 -1 -10 4 -10 6 0 11 5 11 10 0 6 -2 10 -4 10 -3 0
-8 -4 -11 -10z"/>
</g>
</svg>
